<?xml version="1.0" standalone="no"?>
<!DOCTYPE svg PUBLIC "-//W3C//DTD SVG 20010904//EN"
 "http://www.w3.org/TR/2001/REC-SVG-20010904/DTD/svg10.dtd">
<svg version="1.0" xmlns="http://www.w3.org/2000/svg"
 width="448.000000pt" height="114.000000pt" viewBox="0 0 448.000000 114.000000"
 preserveAspectRatio="xMidYMid meet">
<metadata>
Created by potrace 1.16, written by Peter Selinger 2001-2019
</metadata>
<g transform="translate(0.000000,114.000000) scale(0.100000,-0.100000)"
fill="#000000" stroke="none">
<path d="M310 891 l-265 -67 -3 -332 c-1 -183 0 -332 3 -332 3 0 122 29 265
65 143 36 264 65 270 65 6 0 10 -27 10 -65 0 -36 2 -65 5 -65 3 0 122 29 265
65 143 36 264 65 270 65 6 0 10 -27 10 -65 0 -36 2 -65 5 -65 3 0 122 29 265
65 143 36 264 65 270 65 6 0 10 -27 10 -65 0 -36 2 -65 5 -65 3 0 122 29 265
65 143 36 264 65 270 65 6 0 10 -27 10 -65 0 -36 2 -65 5 -65 3 0 122 29 265
65 143 36 264 65 270 65 6 0 10 -27 10 -65 0 -36 2 -65 5 -65 3 0 122 29 265
65 143 36 264 65 270 65 6 0 10 -27 10 -65 0 -36 2 -65 5 -65 3 0 122 29 265
65 143 36 264 65 270 65 6 0 10 -27 10 -66 0 -58 2 -66 18 -62 9 3 133 33 275
69 l257 64 0 332 c0 183 -1 333 -2 333 -2 0 -126 -31 -275 -69 l-273 -69 0 69
c0 38 -1 69 -2 69 -2 0 -126 -31 -275 -69 l-273 -69 0 69 c0 38 -1 69 -2 69
-2 0 -126 -31 -275 -69 l-273 -69 0 69 c0 38 -1 69 -2 69 -2 0 -126 -31 -275
-69 l-273 -69 0 69 c0 38 -1 69 -2 69 -2 0 -126 -31 -275 -69 l-273 -69 0 69
c0 38 -1 69 -2 69 -2 0 -126 -31 -275 -69 l-273 -69 0 69 c0 38 -1 69 -2 69
-2 0 -126 -31 -275 -69 l-273 -69 0 69 c0 38 -3 69 -7 68 -5 0 -127 -31 -273
-68z m740 -286 l0 -264 -38 -10 c-21 -6 -52 -14 -70 -17 l-32 -6 0 66 c0 59
-2 67 -17 62 -10 -3 -30 -8 -45 -12 -27 -6 -28 -8 -28 -73 l0 -68 -52 -12
c-29 -6 -63 -14 -75 -17 l-23 -6 0 264 0 265 53 12 c28 6 62 14 75 17 22 6 22
6 22 -123 l0 -130 45 10 45 10 0 132 0 132 63 15 c34 9 65 16 70 17 4 0 7
-118 7 -264z m3225 118 l-63 -146 70 -114 c39 -63 68 -116 65 -119 -7 -7 -158
-46 -162 -42 -2 2 -20 37 -39 78 l-36 74 0 -86 0 -87 -38 -10 c-21 -6 -52 -14
-70 -17 l-32 -6 0 264 0 265 58 13 c31 7 63 15 70 17 9 4 12 -18 12 -88 l1
-94 39 98 c21 55 41 101 44 104 2 3 35 13 73 23 37 10 69 19 70 19 1 1 -27
-65 -62 -146z m-3805 56 l0 -72 -39 7 c-43 7 -97 -8 -105 -30 -9 -24 4 -41 46
-60 22 -10 53 -30 69 -45 25 -23 29 -35 29 -79 0 -126 -120 -230 -265 -230
l-55 0 0 75 c0 72 1 75 19 65 50 -26 141 -1 141 39 0 22 -20 38 -81 69 -52 26
-69 54 -69 113 0 114 124 217 263 218 l47 1 0 -71z m1076 42 c54 -33 69 -80
69 -211 0 -99 -4 -122 -24 -167 -31 -69 -95 -127 -162 -147 -65 -20 -90 -20
-133 -2 -46 19 -74 70 -86 155 -17 120 11 233 76 310 60 72 192 103 260 62z
m1650 0 c54 -33 69 -80 69 -211 0 -99 -4 -122 -24 -167 -31 -69 -95 -127 -162
-147 -65 -20 -90 -20 -133 -2 -46 19 -74 70 -86 155 -17 120 11 233 76 310 60
72 192 103 260 62z m550 0 c54 -33 69 -80 69 -211 0 -99 -4 -122 -24 -167 -31
-69 -95 -127 -162 -147 -65 -20 -90 -20 -133 -2 -46 19 -74 70 -86 155 -17
120 11 233 76 310 60 72 192 103 260 62z m-1660 -10 c43 -26 64 -76 64 -153 0
-115 -68 -213 -172 -249 l-53 -18 -3 -54 -3 -55 -64 -16 c-35 -9 -69 -16 -75
-16 -7 0 -10 87 -10 263 l0 263 103 26 c125 32 172 34 213 9z m519 5 c66 -28
85 -130 36 -196 l-20 -28 23 -16 c58 -37 55 -132 -5 -201 -44 -50 -83 -71
-179 -95 -47 -11 -93 -23 -102 -26 -17 -5 -18 12 -18 260 l0 265 38 10 c20 5
62 16 92 25 72 19 94 19 135 2z"/>
<path d="M1387 689 c-30 -17 -47 -73 -47 -148 0 -59 4 -74 23 -97 20 -23 27
-26 52 -17 53 17 70 54 70 148 0 67 -4 87 -19 104 -21 23 -50 27 -79 10z"/>
<path d="M3037 689 c-30 -17 -47 -73 -47 -148 0 -59 4 -74 23 -97 20 -23 27
-26 52 -17 53 17 70 54 70 148 0 67 -4 87 -19 104 -21 23 -50 27 -79 10z"/>
<path d="M3587 689 c-30 -17 -47 -73 -47 -148 0 -59 4 -74 23 -97 20 -23 27
-26 52 -17 53 17 70 54 70 148 0 67 -4 87 -19 104 -21 23 -50 27 -79 10z"/>
</g>
</svg>
